<mxfile host="Electron" agent="Mozilla/5.0 (X11; Linux x86_64) AppleWebKit/537.36 (KHTML, like Gecko) draw.io/24.7.17 Chrome/128.0.6613.36 Electron/32.0.1 Safari/537.36" version="24.7.17">
  <diagram name="Page-1" id="KvGxw_n5aYYJMKhfJZ7T">
    <mxGraphModel dx="1781" dy="646" grid="1" gridSize="10" guides="1" tooltips="1" connect="1" arrows="1" fold="1" page="1" pageScale="1" pageWidth="827" pageHeight="1169" math="0" shadow="0">
      <root>
        <mxCell id="0" />
        <mxCell id="1" parent="0" />
        <mxCell id="Sej-ZynclQVukwxzRHNT-34" value="frame" style="shape=umlFrame;whiteSpace=wrap;html=1;pointerEvents=0;" parent="1" vertex="1">
          <mxGeometry x="-10" y="380" width="790" height="200" as="geometry" />
        </mxCell>
        <mxCell id="Sej-ZynclQVukwxzRHNT-2" value="Employee" style="shape=umlActor;verticalLabelPosition=bottom;verticalAlign=top;html=1;outlineConnect=0;" parent="1" vertex="1">
          <mxGeometry x="30" y="110" width="30" height="60" as="geometry" />
        </mxCell>
        <mxCell id="Sej-ZynclQVukwxzRHNT-3" value="Swipe In/Out Device" style="rounded=1;whiteSpace=wrap;html=1;" parent="1" vertex="1">
          <mxGeometry x="130" y="160" width="130" height="20" as="geometry" />
        </mxCell>
        <mxCell id="Sej-ZynclQVukwxzRHNT-4" value="Entry Request Reciever" style="rounded=1;whiteSpace=wrap;html=1;" parent="1" vertex="1">
          <mxGeometry x="320" y="160" width="130" height="20" as="geometry" />
        </mxCell>
        <mxCell id="Sej-ZynclQVukwxzRHNT-5" value="Pass Details" style="rounded=1;whiteSpace=wrap;html=1;" parent="1" vertex="1">
          <mxGeometry x="520" y="160" width="130" height="20" as="geometry" />
        </mxCell>
        <mxCell id="Sej-ZynclQVukwxzRHNT-6" value="Swipe In/Out Device" style="rounded=1;whiteSpace=wrap;html=1;" parent="1" vertex="1">
          <mxGeometry x="140" y="780" width="130" height="20" as="geometry" />
        </mxCell>
        <mxCell id="Sej-ZynclQVukwxzRHNT-7" value="Entry Request Reciever" style="rounded=1;whiteSpace=wrap;html=1;" parent="1" vertex="1">
          <mxGeometry x="330" y="780" width="130" height="20" as="geometry" />
        </mxCell>
        <mxCell id="Sej-ZynclQVukwxzRHNT-8" value="Database" style="rounded=1;whiteSpace=wrap;html=1;" parent="1" vertex="1">
          <mxGeometry x="520" y="780" width="130" height="20" as="geometry" />
        </mxCell>
        <mxCell id="Sej-ZynclQVukwxzRHNT-9" value="" style="line;strokeWidth=2;direction=south;html=1;dashed=1;" parent="1" vertex="1">
          <mxGeometry x="200" y="180" width="10" height="600" as="geometry" />
        </mxCell>
        <mxCell id="Sej-ZynclQVukwxzRHNT-10" value="" style="line;strokeWidth=2;direction=south;html=1;dashed=1;" parent="1" vertex="1">
          <mxGeometry x="390" y="180" width="10" height="600" as="geometry" />
        </mxCell>
        <mxCell id="Sej-ZynclQVukwxzRHNT-11" value="" style="line;strokeWidth=2;direction=south;html=1;dashed=1;" parent="1" vertex="1">
          <mxGeometry x="580" y="180" width="10" height="600" as="geometry" />
        </mxCell>
        <mxCell id="Sej-ZynclQVukwxzRHNT-17" value="" style="endArrow=classic;html=1;rounded=0;entryX=0.082;entryY=0.8;entryDx=0;entryDy=0;entryPerimeter=0;exitX=0.047;exitY=0.3;exitDx=0;exitDy=0;exitPerimeter=0;" parent="1" source="Sej-ZynclQVukwxzRHNT-38" target="Sej-ZynclQVukwxzRHNT-9" edge="1">
          <mxGeometry relative="1" as="geometry">
            <mxPoint x="60" y="229.5" as="sourcePoint" />
            <mxPoint x="160" y="229.5" as="targetPoint" />
          </mxGeometry>
        </mxCell>
        <mxCell id="Sej-ZynclQVukwxzRHNT-18" value="Show Entry Pass" style="edgeLabel;resizable=0;html=1;;align=center;verticalAlign=middle;" parent="Sej-ZynclQVukwxzRHNT-17" connectable="0" vertex="1">
          <mxGeometry relative="1" as="geometry" />
        </mxCell>
        <mxCell id="Sej-ZynclQVukwxzRHNT-20" value="" style="endArrow=classic;html=1;rounded=0;entryX=0.135;entryY=0.2;entryDx=0;entryDy=0;entryPerimeter=0;" parent="1" edge="1">
          <mxGeometry relative="1" as="geometry">
            <mxPoint x="392" y="270" as="sourcePoint" />
            <mxPoint x="590" y="270" as="targetPoint" />
          </mxGeometry>
        </mxCell>
        <mxCell id="Sej-ZynclQVukwxzRHNT-21" value="Validate Valid Pass" style="edgeLabel;resizable=0;html=1;;align=center;verticalAlign=middle;" parent="Sej-ZynclQVukwxzRHNT-20" connectable="0" vertex="1">
          <mxGeometry relative="1" as="geometry" />
        </mxCell>
        <mxCell id="Sej-ZynclQVukwxzRHNT-24" value="" style="endArrow=classic;html=1;rounded=0;entryX=0.198;entryY=0.2;entryDx=0;entryDy=0;entryPerimeter=0;" parent="1" target="Sej-ZynclQVukwxzRHNT-52" edge="1">
          <mxGeometry relative="1" as="geometry">
            <mxPoint x="580" y="310" as="sourcePoint" />
            <mxPoint x="773" y="310" as="targetPoint" />
          </mxGeometry>
        </mxCell>
        <mxCell id="Sej-ZynclQVukwxzRHNT-25" value="Get Pass Details" style="edgeLabel;resizable=0;html=1;;align=center;verticalAlign=middle;" parent="Sej-ZynclQVukwxzRHNT-24" connectable="0" vertex="1">
          <mxGeometry relative="1" as="geometry" />
        </mxCell>
        <mxCell id="Sej-ZynclQVukwxzRHNT-29" value="pass details" style="endArrow=classic;html=1;rounded=0;dashed=1;exitX=0.265;exitY=0.7;exitDx=0;exitDy=0;exitPerimeter=0;" parent="1" source="Sej-ZynclQVukwxzRHNT-52" edge="1">
          <mxGeometry width="50" height="50" relative="1" as="geometry">
            <mxPoint x="710" y="350" as="sourcePoint" />
            <mxPoint x="590" y="350" as="targetPoint" />
          </mxGeometry>
        </mxCell>
        <mxCell id="Sej-ZynclQVukwxzRHNT-37" value="Valid Pass" style="endArrow=classic;html=1;rounded=0;" parent="1" edge="1">
          <mxGeometry width="50" height="50" relative="1" as="geometry">
            <mxPoint x="580" y="414.5" as="sourcePoint" />
            <mxPoint x="390" y="414.5" as="targetPoint" />
          </mxGeometry>
        </mxCell>
        <mxCell id="Sej-ZynclQVukwxzRHNT-38" value="" style="line;strokeWidth=2;direction=south;html=1;dashed=1;" parent="1" vertex="1">
          <mxGeometry x="40" y="200" width="10" height="580" as="geometry" />
        </mxCell>
        <mxCell id="Sej-ZynclQVukwxzRHNT-39" value="Allow Entry" style="endArrow=classic;html=1;rounded=0;exitX=0.48;exitY=0.1;exitDx=0;exitDy=0;exitPerimeter=0;" parent="1" edge="1">
          <mxGeometry width="50" height="50" relative="1" as="geometry">
            <mxPoint x="400" y="460" as="sourcePoint" />
            <mxPoint x="205" y="462" as="targetPoint" />
          </mxGeometry>
        </mxCell>
        <mxCell id="Sej-ZynclQVukwxzRHNT-40" value="" style="endArrow=none;dashed=1;html=1;dashPattern=1 3;strokeWidth=2;rounded=0;" parent="1" edge="1">
          <mxGeometry width="50" height="50" relative="1" as="geometry">
            <mxPoint x="680" y="510" as="sourcePoint" />
            <mxPoint x="-50" y="510" as="targetPoint" />
          </mxGeometry>
        </mxCell>
        <mxCell id="Sej-ZynclQVukwxzRHNT-41" value="Invalid Pass" style="endArrow=classic;html=1;rounded=0;exitX=0.603;exitY=0.2;exitDx=0;exitDy=0;exitPerimeter=0;" parent="1" source="Sej-ZynclQVukwxzRHNT-11" edge="1">
          <mxGeometry width="50" height="50" relative="1" as="geometry">
            <mxPoint x="591" y="543" as="sourcePoint" />
            <mxPoint x="390" y="540" as="targetPoint" />
          </mxGeometry>
        </mxCell>
        <mxCell id="Sej-ZynclQVukwxzRHNT-42" value="else" style="text;html=1;align=center;verticalAlign=middle;resizable=0;points=[];autosize=1;strokeColor=none;fillColor=none;" parent="1" vertex="1">
          <mxGeometry y="485" width="50" height="30" as="geometry" />
        </mxCell>
        <mxCell id="Sej-ZynclQVukwxzRHNT-43" value="If valid pass" style="text;html=1;align=center;verticalAlign=middle;resizable=0;points=[];autosize=1;strokeColor=none;fillColor=none;" parent="1" vertex="1">
          <mxGeometry y="400" width="90" height="30" as="geometry" />
        </mxCell>
        <mxCell id="Sej-ZynclQVukwxzRHNT-44" value="Deny Entry" style="endArrow=classic;html=1;rounded=0;exitX=0.635;exitY=0.7;exitDx=0;exitDy=0;exitPerimeter=0;" parent="1" edge="1">
          <mxGeometry width="50" height="50" relative="1" as="geometry">
            <mxPoint x="390" y="551" as="sourcePoint" />
            <mxPoint x="203" y="550" as="targetPoint" />
          </mxGeometry>
        </mxCell>
        <mxCell id="Sej-ZynclQVukwxzRHNT-45" value="Entry" style="text;html=1;align=center;verticalAlign=middle;resizable=0;points=[];autosize=1;strokeColor=none;fillColor=none;" parent="1" vertex="1">
          <mxGeometry x="40" y="200" width="50" height="30" as="geometry" />
        </mxCell>
        <mxCell id="Sej-ZynclQVukwxzRHNT-46" value="" style="endArrow=classic;html=1;rounded=0;exitX=0.5;exitY=0.4;exitDx=0;exitDy=0;exitPerimeter=0;" parent="1" edge="1">
          <mxGeometry relative="1" as="geometry">
            <mxPoint x="394" y="440" as="sourcePoint" />
            <mxPoint x="720" y="440" as="targetPoint" />
          </mxGeometry>
        </mxCell>
        <mxCell id="Sej-ZynclQVukwxzRHNT-47" value="Make In Entry In database" style="edgeLabel;resizable=0;html=1;;align=center;verticalAlign=middle;" parent="Sej-ZynclQVukwxzRHNT-46" connectable="0" vertex="1">
          <mxGeometry relative="1" as="geometry" />
        </mxCell>
        <mxCell id="Sej-ZynclQVukwxzRHNT-50" value="Database" style="rounded=1;whiteSpace=wrap;html=1;" parent="1" vertex="1">
          <mxGeometry x="670" y="160" width="130" height="20" as="geometry" />
        </mxCell>
        <mxCell id="Sej-ZynclQVukwxzRHNT-51" value="Database" style="rounded=1;whiteSpace=wrap;html=1;" parent="1" vertex="1">
          <mxGeometry x="670" y="780" width="130" height="20" as="geometry" />
        </mxCell>
        <mxCell id="Sej-ZynclQVukwxzRHNT-52" value="" style="line;strokeWidth=2;direction=south;html=1;dashed=1;" parent="1" vertex="1">
          <mxGeometry x="720" y="190" width="10" height="600" as="geometry" />
        </mxCell>
        <mxCell id="Sej-ZynclQVukwxzRHNT-53" value="Employee" style="shape=umlActor;verticalLabelPosition=bottom;verticalAlign=top;html=1;outlineConnect=0;" parent="1" vertex="1">
          <mxGeometry x="30" y="780" width="30" height="60" as="geometry" />
        </mxCell>
        <mxCell id="Sej-ZynclQVukwxzRHNT-55" style="edgeStyle=orthogonalEdgeStyle;rounded=0;orthogonalLoop=1;jettySize=auto;html=1;exitX=0.741;exitY=0.5;exitDx=0;exitDy=0;exitPerimeter=0;entryX=0.75;entryY=0.5;entryDx=0;entryDy=0;entryPerimeter=0;" parent="1" source="Sej-ZynclQVukwxzRHNT-38" target="Sej-ZynclQVukwxzRHNT-9" edge="1">
          <mxGeometry relative="1" as="geometry" />
        </mxCell>
        <mxCell id="Sej-ZynclQVukwxzRHNT-56" value="Show Pass At exit" style="edgeLabel;html=1;align=center;verticalAlign=middle;resizable=0;points=[];" parent="Sej-ZynclQVukwxzRHNT-55" vertex="1" connectable="0">
          <mxGeometry x="-0.2144" y="-3" relative="1" as="geometry">
            <mxPoint as="offset" />
          </mxGeometry>
        </mxCell>
        <mxCell id="Sej-ZynclQVukwxzRHNT-57" value="Exit Request Recieved" style="edgeStyle=orthogonalEdgeStyle;rounded=0;orthogonalLoop=1;jettySize=auto;html=1;exitX=0.741;exitY=0.5;exitDx=0;exitDy=0;exitPerimeter=0;entryX=0.817;entryY=1;entryDx=0;entryDy=0;entryPerimeter=0;" parent="1" target="Sej-ZynclQVukwxzRHNT-10" edge="1">
          <mxGeometry relative="1" as="geometry">
            <mxPoint x="200" y="670" as="sourcePoint" />
            <mxPoint x="330" y="670" as="targetPoint" />
          </mxGeometry>
        </mxCell>
        <mxCell id="Sej-ZynclQVukwxzRHNT-59" value="" style="endArrow=classic;html=1;rounded=0;entryX=0.135;entryY=0.2;entryDx=0;entryDy=0;entryPerimeter=0;" parent="1" edge="1">
          <mxGeometry relative="1" as="geometry">
            <mxPoint x="202" y="240" as="sourcePoint" />
            <mxPoint x="400" y="240" as="targetPoint" />
          </mxGeometry>
        </mxCell>
        <mxCell id="Sej-ZynclQVukwxzRHNT-60" value="Entry Request Recieved" style="edgeLabel;resizable=0;html=1;;align=center;verticalAlign=middle;" parent="Sej-ZynclQVukwxzRHNT-59" connectable="0" vertex="1">
          <mxGeometry relative="1" as="geometry" />
        </mxCell>
        <mxCell id="Sej-ZynclQVukwxzRHNT-61" value="gate Opens" style="endArrow=classic;html=1;rounded=0;entryX=0.486;entryY=0.8;entryDx=0;entryDy=0;entryPerimeter=0;" parent="1" target="Sej-ZynclQVukwxzRHNT-38" edge="1">
          <mxGeometry width="50" height="50" relative="1" as="geometry">
            <mxPoint x="200" y="485" as="sourcePoint" />
            <mxPoint x="40" y="487" as="targetPoint" />
          </mxGeometry>
        </mxCell>
        <mxCell id="Sej-ZynclQVukwxzRHNT-62" value="Get remain closed" style="endArrow=classic;html=1;rounded=0;entryX=0.486;entryY=0.8;entryDx=0;entryDy=0;entryPerimeter=0;" parent="1" edge="1">
          <mxGeometry width="50" height="50" relative="1" as="geometry">
            <mxPoint x="200" y="563" as="sourcePoint" />
            <mxPoint x="42" y="560" as="targetPoint" />
          </mxGeometry>
        </mxCell>
        <mxCell id="Sej-ZynclQVukwxzRHNT-64" value="" style="endArrow=classic;html=1;rounded=0;exitX=0.5;exitY=0.4;exitDx=0;exitDy=0;exitPerimeter=0;" parent="1" edge="1">
          <mxGeometry relative="1" as="geometry">
            <mxPoint x="400" y="690" as="sourcePoint" />
            <mxPoint x="726" y="690" as="targetPoint" />
          </mxGeometry>
        </mxCell>
        <mxCell id="Sej-ZynclQVukwxzRHNT-65" value="Make exit Entry In database" style="edgeLabel;resizable=0;html=1;;align=center;verticalAlign=middle;" parent="Sej-ZynclQVukwxzRHNT-64" connectable="0" vertex="1">
          <mxGeometry relative="1" as="geometry" />
        </mxCell>
        <mxCell id="Sej-ZynclQVukwxzRHNT-66" value="gate Opens" style="endArrow=classic;html=1;rounded=0;entryX=0.486;entryY=0.8;entryDx=0;entryDy=0;entryPerimeter=0;" parent="1" edge="1">
          <mxGeometry width="50" height="50" relative="1" as="geometry">
            <mxPoint x="208" y="733" as="sourcePoint" />
            <mxPoint x="50" y="730" as="targetPoint" />
          </mxGeometry>
        </mxCell>
        <mxCell id="Sej-ZynclQVukwxzRHNT-67" value="Entry Success" style="endArrow=classic;html=1;rounded=0;exitX=0.365;exitY=0.2;exitDx=0;exitDy=0;exitPerimeter=0;" parent="1" source="Sej-ZynclQVukwxzRHNT-10" edge="1">
          <mxGeometry width="50" height="50" relative="1" as="geometry">
            <mxPoint x="590" y="450" as="sourcePoint" />
            <mxPoint x="400" y="450" as="targetPoint" />
            <Array as="points">
              <mxPoint x="430" y="400" />
              <mxPoint x="430" y="440" />
              <mxPoint x="430" y="450" />
            </Array>
          </mxGeometry>
        </mxCell>
      </root>
    </mxGraphModel>
  </diagram>
</mxfile>
